<svg id="Layer_1" data-name="Layer 1" xmlns="http://www.w3.org/2000/svg" viewBox="0 0 1920 8579"><defs><style>.cls-1{fill:#fff;}.cls-2,.cls-4{fill:none;stroke-miterlimit:10;}.cls-2{stroke:#0b0b0b;stroke-width:41px;}.cls-3{fill:#0b0b0b;}.cls-4{stroke:#000;}</style></defs><title>Artboard 1</title><rect class="cls-1" width="1920" height="8579"/><circle class="cls-2" cx="960" cy="363" r="603.5"/><rect class="cls-1" x="68.5" y="-58" width="1849" height="267.5"/><rect class="cls-1" x="11" y="522" width="1849" height="481"/><circle class="cls-2" cx="960" cy="363" r="559.5"/><rect class="cls-1" x="59.5" y="-192" width="1849" height="267.5"/><rect class="cls-1" x="36.5" y="671" width="1849" height="288"/><circle class="cls-3" cx="960.5" cy="363.5" r="536"/><circle class="cls-4" cx="958.5" cy="362.5" r="886"/><rect x="-73.78" y="1502.76" width="1045" height="10.77" transform="translate(-293.64 120.79) rotate(-11.58)"/><rect x="-73.78" y="1521.76" width="1045" height="10.77" transform="translate(-297.46 121.18) rotate(-11.58)"/><rect x="-73.78" y="1542.76" width="1045" height="10.77" transform="translate(-301.68 121.61) rotate(-11.58)"/><rect x="-73.78" y="1561.76" width="1045" height="10.77" transform="translate(-305.49 121.99) rotate(-11.58)"/><rect x="-73.78" y="1581.76" width="1045" height="10.77" transform="translate(-309.51 122.4) rotate(-11.58)"/><rect x="-73.78" y="1601.76" width="1045" height="10.77" transform="translate(-313.52 122.81) rotate(-11.58)"/><rect x="948.22" y="1601.76" width="1045" height="10.77" transform="translate(352.6 -262.55) rotate(11.58)"/><rect x="948.22" y="1582.76" width="1045" height="10.77" transform="translate(348.79 -262.93) rotate(11.58)"/><rect x="948.22" y="1561.76" width="1045" height="10.77" transform="translate(344.57 -263.36) rotate(11.58)"/><rect x="948.22" y="1542.76" width="1045" height="10.77" transform="translate(340.76 -263.75) rotate(11.58)"/><rect x="948.22" y="1522.76" width="1045" height="10.77" transform="translate(336.74 -264.15) rotate(11.58)"/><rect x="948.22" y="1502.76" width="1045" height="10.77" transform="translate(332.73 -264.56) rotate(11.58)"/><rect x="-353.19" y="2492.28" width="2740" height="1711.88" transform="translate(1081.79 -150.39) rotate(17.96)"/><rect x="1271" y="2516" width="912" height="434" transform="translate(-241.73 168.64) rotate(-5.23)"/><circle cx="301.5" cy="5572.5" r="791.5"/><circle cx="1776" cy="6904" r="409"/></svg>
