<svg id="Layer_1" data-name="Layer 1" xmlns="http://www.w3.org/2000/svg" width="811.43" height="88.64" viewBox="0 0 811.43 88.64">
  <defs>
    <style>
      .cls-1 {
        fill: #0c0c0c;
      }
    </style>
  </defs>
  <title>Artboard 14</title>
  <g>
    <polygon class="cls-1" points="54.77 43.01 22.87 2.08 0 2.08 0 86.35 27.09 86.35 27.09 45.42 58.99 86.35 81.86 86.35 81.86 2.08 54.77 2.08 54.77 43.01"/>
    <rect class="cls-1" x="98.46" y="2.08" width="27.09" height="84.27"/>
    <polygon class="cls-1" points="196.92 43.01 165.02 2.08 142.15 2.08 142.15 86.35 169.23 86.35 169.23 45.42 201.13 86.35 224.01 86.35 224.01 2.08 196.92 2.08 196.92 43.01"/>
    <polygon class="cls-1" points="295.38 43.01 263.48 2.08 240.6 2.08 240.6 86.35 267.69 86.35 267.69 45.42 299.59 86.35 322.46 86.35 322.46 2.08 295.38 2.08 295.38 43.01"/>
    <path class="cls-1" d="M590.44,0a44.32,44.32,0,1,0,44.32,44.32A44.32,44.32,0,0,0,590.44,0Zm0,62.24c-9.32,0-16.87-8-16.87-17.92s7.55-17.92,16.87-17.92,16.88,8,16.88,17.92S599.76,62.24,590.44,62.24Z"/>
    <path class="cls-1" d="M385.64,2.08H361.15l-30.7,84.27H358l4.4-13.44h28.71l4.4,13.44h27.59L392.44,2.08ZM369.19,52.31l7.61-23.22,7.6,23.22Z"/>
    <polygon class="cls-1" points="515.76 2.24 501.95 40.17 488.13 2.24 457.49 2.24 475.83 52.59 497.42 52.59 485.06 86.51 515.75 86.51 546.45 2.24 515.76 2.24"/>
    <polygon class="cls-1" points="811.43 2.08 781.71 2.08 760.61 39.49 760.45 39.47 760.45 30.97 760.45 2.08 733.36 2.08 733.36 86.35 760.45 86.35 760.45 65.89 760.45 49.28 760.61 49.26 781.54 86.35 811.25 86.35 786.82 44.37 811.43 2.08"/>
    <path class="cls-1" d="M719.13,32.18c0-16.86-12.64-30.1-31.9-30.1H645.7V86.35h27.09V62.27h7.68l13.58,24.08h29.2L706,56.78C707.5,56,719.13,49.1,719.13,32.18Zm-33.69,6.76H672.79V25.42h12.65c4.73,0,7.43,2.7,7.43,6.76S690.17,38.94,685.44,38.94Z"/>
  </g>
</svg>
