<svg id="Layer_1" data-name="Layer 1" xmlns="http://www.w3.org/2000/svg" width="1920" height="2405" viewBox="0 0 1920 2405">
  <defs>
    <style>
      .cls-1 {
        fill: #0b0b0b;
      }
    </style>
  </defs>
  <title>show</title>
  <rect class="cls-1" x="48.68" y="-96.75" width="1045" height="10.77" transform="translate(81.81 -399.77) rotate(41.31)"/>
  <rect class="cls-1" x="49.1" y="-121.25" width="1045" height="10.77" transform="translate(65.74 -406.14) rotate(41.31)"/>
  <rect class="cls-1" x="49.51" y="-148.49" width="1045" height="10.77" transform="translate(47.87 -413.19) rotate(41.31)"/>
  <rect class="cls-1" x="49.93" y="-172.99" width="1045" height="10.77" transform="translate(31.8 -419.57) rotate(41.31)"/>
  <rect class="cls-1" x="49.85" y="-198.36" width="1045" height="10.77" transform="translate(15.03 -425.83) rotate(41.31)"/>
  <rect class="cls-1" x="49.77" y="-224.73" width="1045" height="10.77" transform="translate(-2.39 -432.33) rotate(41.31)"/>
  <rect class="cls-1" x="826.93" y="-95.75" width="1045" height="10.77" transform="translate(2303.44 -1049.02) rotate(138.69)"/>
  <rect class="cls-1" x="827.51" y="-120.25" width="1045" height="10.77" transform="translate(2288.28 -1092.3) rotate(138.69)"/>
  <rect class="cls-1" x="828.1" y="-148.49" width="1045" height="10.77" transform="translate(2270.67 -1142.14) rotate(138.69)"/>
  <rect class="cls-1" x="827.68" y="-172.99" width="1045" height="10.77" transform="translate(2253.76 -1184.76) rotate(138.69)"/>
  <rect class="cls-1" x="827.76" y="-198.36" width="1045" height="10.77" transform="translate(2237.16 -1229.24) rotate(138.69)"/>
  <rect class="cls-1" x="827.84" y="-224.73" width="1045" height="10.77" transform="translate(2219.9 -1275.47) rotate(138.69)"/>
  <rect class="cls-1" x="827.1" y="2507.27" width="1045" height="10.77" transform="translate(704.77 5290.98) rotate(-138.69)"/>
  <rect class="cls-1" x="826.68" y="2531.77" width="1045" height="10.77" transform="translate(687.86 5333.6) rotate(-138.69)"/>
  <rect class="cls-1" x="826.26" y="2559.01" width="1045" height="10.77" transform="translate(669.16 5381.03) rotate(-138.69)"/>
  <rect class="cls-1" x="825.84" y="2583.51" width="1045" height="10.77" transform="translate(652.25 5423.65) rotate(-138.69)"/>
  <rect class="cls-1" x="825.93" y="2608.88" width="1045" height="10.77" transform="translate(635.65 5468.13) rotate(-138.69)"/>
  <rect class="cls-1" x="826.01" y="2635.25" width="1045" height="10.77" transform="translate(618.39 5514.36) rotate(-138.69)"/>
  <rect class="cls-1" x="48.84" y="2506.27" width="1045" height="10.77" transform="translate(-1515.79 1002.11) rotate(-41.31)"/>
  <rect class="cls-1" x="48.26" y="2530.77" width="1045" height="10.77" transform="translate(-1532.1 1007.82) rotate(-41.31)"/>
  <rect class="cls-1" x="47.68" y="2559.01" width="1045" height="10.77" transform="translate(-1550.89 1014.46) rotate(-41.31)"/>
  <rect class="cls-1" x="48.1" y="2583.51" width="1045" height="10.77" transform="translate(-1566.96 1020.83) rotate(-41.31)"/>
  <rect class="cls-1" x="48.02" y="2608.88" width="1045" height="10.77" transform="translate(-1583.72 1027.09) rotate(-41.31)"/>
  <rect class="cls-1" x="47.93" y="2635.25" width="1045" height="10.77" transform="translate(-1601.15 1033.6) rotate(-41.31)"/>
</svg>
