<svg id="Layer_1" data-name="Layer 1" xmlns="http://www.w3.org/2000/svg" width="375" height="1958" viewBox="0 0 375 1958">
  <defs>
    <style>
      .cls-1 {
        fill: #0b0b0b;
      }
    </style>
  </defs>
  <title>showmobil</title>
  <rect class="cls-1" x="203.6" y="2137.27" width="1045" height="10.77" transform="translate(-142.85 4231.47) rotate(-138.69)"/>
  <rect class="cls-1" x="203.18" y="2161.77" width="1045" height="10.77" transform="translate(-159.76 4274.09) rotate(-138.69)"/>
  <rect class="cls-1" x="202.76" y="2189.01" width="1045" height="10.77" transform="translate(-178.46 4321.52) rotate(-138.69)"/>
  <rect class="cls-1" x="202.34" y="2213.51" width="1045" height="10.77" transform="translate(-195.37 4364.14) rotate(-138.69)"/>
  <rect class="cls-1" x="202.43" y="2238.88" width="1045" height="10.77" transform="translate(-211.97 4408.62) rotate(-138.69)"/>
  <rect class="cls-1" x="202.51" y="2265.25" width="1045" height="10.77" transform="translate(-229.23 4454.85) rotate(-138.69)"/>
  <rect class="cls-1" x="-574.66" y="2136.27" width="1045" height="10.77" transform="translate(-1426.69 498.47) rotate(-41.31)"/>
  <rect class="cls-1" x="-575.24" y="2160.77" width="1045" height="10.77" transform="translate(-1443.01 504.18) rotate(-41.31)"/>
  <rect class="cls-1" x="-575.82" y="2189.01" width="1045" height="10.77" transform="translate(-1461.79 510.82) rotate(-41.31)"/>
  <rect class="cls-1" x="-575.4" y="2213.51" width="1045" height="10.77" transform="translate(-1477.86 517.19) rotate(-41.31)"/>
  <rect class="cls-1" x="-575.48" y="2238.88" width="1045" height="10.77" transform="translate(-1494.63 523.45) rotate(-41.31)"/>
  <rect class="cls-1" x="-575.57" y="2265.25" width="1045" height="10.77" transform="translate(-1512.05 529.96) rotate(-41.31)"/>
  <polygon class="cls-1" points="62.96 242.77 -375.82 -149 50.08 -529.27 488.87 -137.5 62.96 242.77"/>
</svg>
